<?xml version="1.0" encoding="UTF-8"?>
<svg width="800" height="800" viewBox="0 0 800 800" xmlns="http://www.w3.org/2000/svg">
  <!-- Background circle -->
  <circle cx="400" cy="400" r="380" fill="white" stroke="black" stroke-width="2"/>
  
  <!-- Orange flame -->
  <path d="M250 350 
           C270 320 290 340 310 320
           C330 300 350 320 370 300
           C390 280 410 300 430 320
           C450 340 470 360 450 380
           C430 400 410 380 390 400
           C370 420 350 400 330 420
           C310 440 290 420 270 400
           C250 380 230 360 250 350 Z"
        fill="#FF8C00"/>
  
  <!-- Black motorcycle - updated to match original -->
  <path d="M440 320
           C480 320 520 340 550 380
           C580 420 570 460 540 460
           C510 460 490 440 470 420
           C450 400 430 420 410 400
           C390 380 400 320 440 320 Z
           M560 380
           C570 390 580 400 570 420
           C560 440 540 430 550 410
           C560 390 560 380 560 380 Z"
        fill="black"/>
  
  <!-- Text with exact positioning and styling -->
  <g transform="translate(0, 50)">
    <text x="280" y="450" 
          font-family="Arial Black, sans-serif" 
          font-size="72" 
          font-weight="900" 
          fill="#FF8C00">ride</text>
    <text x="460" y="450" 
          font-family="Arial Black, sans-serif" 
          font-size="72" 
          font-weight="900" 
          fill="black">ahead</text>
  </g>
</svg> 